<?xml version="1.0" encoding="UTF-8"?>
<svg id="Layer_1" data-name="Layer 1" xmlns="http://www.w3.org/2000/svg" viewBox="0 0 480 589.25">
  <defs>
    <style>
      .cls-1 {
        fill: #222;
      }
    </style>
  </defs>
  <path class="cls-1" d="M243.74,169.31c-23.28,0-59.3-26.46-97.25-25.51-50.06,.64-95.97,29.01-121.8,73.97-51.97,90.23-13.39,223.51,37.3,296.84,24.87,35.71,54.2,75.88,93.1,74.61,37.3-1.59,51.33-24.23,96.61-24.23s57.71,24.23,97.25,23.28c40.17-.64,65.68-36.35,90.23-72.38,28.38-41.45,40.17-81.62,40.81-83.86-.96-.32-78.12-29.97-79.07-119.25-.64-74.61,60.9-110.32,63.77-111.91-35.07-51.33-88.96-57.07-107.77-58.35-49.1-3.83-90.23,26.78-113.19,26.78h0Zm82.9-75.25c20.72-24.87,34.43-59.62,30.61-94.06-29.65,1.28-65.36,19.77-86.73,44.64-19.13,22-35.71,57.39-31.25,91.19,32.84,2.55,66.64-16.9,87.36-41.77"/>
</svg>