<?xml version="1.0" encoding="UTF-8"?>
<svg id="Layer_1" data-name="Layer 1" xmlns="http://www.w3.org/2000/svg" viewBox="0 0 480 468.03">
  <defs>
    <style>
      .cls-1 {
        fill: #222;
      }
    </style>
  </defs>
  <path class="cls-1" d="M354.48,0c41.21,0,82.42,0,123.63,0,.03,9.28-.05,18.57,.04,27.85-10.47,.45-21.17,1.63-30.81,6.01-9.78,4.39-17.98,12.39-22.2,22.28-50.11,117.79-100.18,235.59-150.23,353.41-.87,1.93-1.56,3.94-2.57,5.81-17.92-.21-35.85-.03-53.77-.1-7.91-15.72-15.7-31.5-23.67-47.18-9.14,24.5-18.34,48.97-27.48,73.47h177.37c10.82,.14,21.97-.31,32.1-4.54,16.83-6.76,30.23-19.83,41.13-33.99,13.16-17.17,23.15-36.49,32.05-56.13,9.98-.09,19.96,.03,29.94,.01-18.92,40.41-37.94,80.79-57.03,121.12H14.25c3.32-8.66,6.47-17.39,10.03-25.97,.22-.88,1.32-.66,1.99-.74,17.01-.12,34.13-.79,50.82-4.33,8.69-2.04,17.67-4.75,24.36-10.95,3.53-3.37,4.64-8.29,5.81-12.84,16.09-43.06,32.21-86.11,48.3-129.17C121.52,211.54,87.38,139.07,53.33,66.56c-2.74-6.34-6.36-12.62-12.05-16.75C29.5,41,14.19,39.88,0,39.31V8.15c47.84-.02,95.66-.01,143.5,0,0,10.39,.01,20.78,0,31.17-6.23,.39-12.85,.3-18.5,3.38-2.8,1.32-4.44,4.65-3.73,7.68,.88,4.96,4.8,8.5,6.79,12.97,20.2,43.51,40.4,87.02,60.66,130.51,10.15-28.39,20.3-56.76,30.5-85.14,1.5-3.95,2.03-8.5,.32-12.47-1.34-3.13-4.38-5.07-7.38-6.37-5.83-2.41-12.24-2.38-18.42-2.83,3.16-8.77,6.33-17.54,9.6-26.26,.76-.49,1.81-.11,2.68-.24,48.53,.03,97.07,0,145.61,.02-3.35,8.81-6.69,17.62-10.01,26.45-11.69,.54-23.74,.84-34.7,5.4-5.02,2.1-9.78,5.32-12.75,9.97-2.06,3.41-3.34,7.21-4.72,10.93-20.28,55.31-40.75,110.54-60.8,165.94,11.11,25.1,22.68,49.99,34.01,75,41.14-97.15,82.27-194.31,123.46-291.45,2.77-5.84,7.3-11.17,7.65-17.89,.34-5.26-3.56-9.8-8.08-11.95-9.74-4.5-20.69-4.72-31.23-5.1-.01-9.29-.01-18.58,0-27.87h0Z"/>
</svg>